<svg xmlns="http://www.w3.org/2000/svg" width="58" height="58" viewBox="0 0 58 58" role="img" aria-label="isn't"><title>isn't</title><path fill="#F5F0E6" d="M8.71 39L5.72 39L5.72 27.44L3.64 27.44L3.64 25.11L8.71 25.11L8.71 39ZM7.00 22.59L7.00 22.59Q6.19 22.59 5.60 22.00Q5.02 21.42 5.02 20.60L5.02 20.60Q5.02 19.76 5.60 19.19Q6.19 18.62 7.00 18.62L7.00 18.62Q7.84 18.62 8.42 19.19Q8.99 19.76 8.99 20.60L8.99 20.60Q8.99 21.42 8.42 22.00Q7.84 22.59 7.00 22.59ZM17.50 39.34L17.50 39.34Q16.16 39.34 14.91 38.94Q13.67 38.55 12.73 37.78Q11.79 37.01 11.32 35.84L11.32 35.84L14.03 34.86Q14.31 35.89 15.35 36.45Q16.38 37.01 17.53 37.01L17.53 37.01Q18.79 37.01 19.69 36.49Q20.58 35.98 20.58 35.11L20.58 35.11Q20.58 34.35 19.94 33.93Q19.30 33.51 17.87 33.23L17.87 33.23L15.99 32.84Q14.76 32.59 13.79 32.11Q12.83 31.64 12.28 30.85Q11.74 30.07 11.74 28.89L11.74 28.89Q11.74 27.60 12.52 26.68Q13.30 25.76 14.61 25.28Q15.91 24.80 17.42 24.80L17.42 24.80Q19.24 24.80 20.81 25.52Q22.38 26.23 23.08 27.80L23.08 27.80L20.42 28.78Q20.05 27.97 19.20 27.55Q18.34 27.13 17.28 27.13L17.28 27.13Q16.10 27.13 15.38 27.58Q14.65 28.02 14.65 28.78L14.65 28.78Q14.65 29.45 15.17 29.80Q15.68 30.15 16.80 30.40L16.80 30.40L18.71 30.80Q20.22 31.10 21.30 31.58Q22.38 32.06 22.94 32.85Q23.50 33.65 23.50 34.94L23.50 34.94Q23.50 36.31 22.68 37.31Q21.87 38.30 20.53 38.82Q19.18 39.34 17.50 39.34ZM29.01 39L26.04 39L26.04 25.11L28.42 25.11L29.01 27.13Q29.38 26.51 29.98 25.99Q30.58 25.48 31.43 25.15Q32.29 24.83 33.44 24.83L33.44 24.83Q35.14 24.83 36.15 25.50Q37.16 26.18 37.61 27.41Q38.06 28.64 38.06 30.32L38.06 30.32L38.06 39L35.06 39L35.06 31.13Q35.06 30.10 34.89 29.21Q34.72 28.33 34.15 27.80Q33.58 27.27 32.32 27.27L32.32 27.27Q30.75 27.27 29.88 28.37Q29.01 29.48 29.01 31.61L29.01 31.61L29.01 39ZM43.38 26.60L41.36 26.60L40.97 20.30L43.77 20.30L43.38 26.60ZM53.60 39L51.38 39Q49.96 39 49.14 38.72Q48.33 38.44 48.01 37.66Q47.69 36.87 47.69 35.39L47.69 35.39L47.69 27.44L45.36 27.44L45.36 25.11L47.69 25.11L47.69 21.64L50.66 21.64L50.66 25.11L53.60 25.11L53.60 27.44L50.66 27.44L50.66 34.74Q50.66 35.86 50.96 36.17Q51.27 36.48 52.22 36.48L52.22 36.48L53.60 36.48L53.60 39Z"/></svg>
