<svg xmlns="http://www.w3.org/2000/svg" width="114" height="58" viewBox="0 0 114 58" role="img" aria-label="between"><title>between</title><path fill="#F5F0E6" d="M12.24 39.34L12.24 39.34Q11.26 39.34 10.42 39.06Q9.58 38.78 8.91 38.24Q8.24 37.71 7.82 36.98L7.82 36.98L7.23 39L4.85 39L4.85 19.18L7.82 19.18L7.82 27.21Q8.24 26.46 8.91 25.92Q9.58 25.39 10.42 25.11Q11.26 24.83 12.24 24.83L12.24 24.83Q13.89 24.83 15.26 25.69Q16.64 26.54 17.45 28.15Q18.26 29.76 18.26 32.06L18.26 32.06Q18.26 34.35 17.45 35.98Q16.64 37.60 15.26 38.47Q13.89 39.34 12.24 39.34ZM11.37 36.90L11.37 36.90Q13.00 36.90 14.02 35.63Q15.04 34.35 15.04 32.06L15.04 32.06Q15.04 29.76 14.02 28.51Q13.00 27.27 11.37 27.27L11.37 27.27Q9.75 27.27 8.73 28.49Q7.70 29.70 7.70 32.08L7.70 32.08Q7.70 33.65 8.18 34.73Q8.66 35.81 9.48 36.35Q10.31 36.90 11.37 36.90ZM27.25 39.34L27.25 39.34Q25.04 39.34 23.45 38.40Q21.87 37.46 21.02 35.82Q20.16 34.18 20.16 32.06L20.16 32.06Q20.16 29.84 21.10 28.22Q22.04 26.60 23.62 25.71Q25.20 24.83 27.16 24.83L27.16 24.83Q28.82 24.83 30.12 25.48Q31.42 26.12 32.29 27.24Q33.16 28.36 33.55 29.80Q33.94 31.24 33.83 32.87L33.83 32.87L23.19 32.87Q23.33 34.02 23.75 34.80Q24.17 35.58 24.74 36.03Q25.32 36.48 25.97 36.68Q26.63 36.87 27.22 36.87L27.22 36.87Q28.31 36.87 29.08 36.52Q29.85 36.17 30.30 35.61L30.30 35.61L32.93 36.45Q32.09 37.80 30.61 38.57Q29.12 39.34 27.25 39.34ZM23.22 30.74L23.22 30.74L30.86 30.74Q30.83 29.79 30.37 28.99Q29.91 28.19 29.10 27.70Q28.28 27.21 27.19 27.21L27.19 27.21Q26.32 27.21 25.47 27.55Q24.62 27.88 24.01 28.65Q23.41 29.42 23.22 30.74ZM43.21 39L41.00 39Q39.57 39 38.76 38.72Q37.94 38.44 37.62 37.66Q37.30 36.87 37.30 35.39L37.30 35.39L37.30 27.44L34.98 27.44L34.98 25.11L37.30 25.11L37.30 21.64L40.27 21.64L40.27 25.11L43.21 25.11L43.21 27.44L40.27 27.44L40.27 34.74Q40.27 35.86 40.58 36.17Q40.88 36.48 41.84 36.48L41.84 36.48L43.21 36.48L43.21 39ZM51.47 39L48.53 39L44.69 25.11L47.77 25.11L50.24 35.11L52.70 25.11L55.64 25.11L58.08 35.11L60.57 25.11L63.65 25.11L59.84 39L56.84 39L54.16 28.22L51.47 39ZM71.74 39.34L71.74 39.34Q69.53 39.34 67.95 38.40Q66.36 37.46 65.51 35.82Q64.66 34.18 64.66 32.06L64.66 32.06Q64.66 29.84 65.59 28.22Q66.53 26.60 68.11 25.71Q69.70 24.83 71.66 24.83L71.66 24.83Q73.31 24.83 74.61 25.48Q75.91 26.12 76.78 27.24Q77.65 28.36 78.04 29.80Q78.43 31.24 78.32 32.87L78.32 32.87L67.68 32.87Q67.82 34.02 68.24 34.80Q68.66 35.58 69.23 36.03Q69.81 36.48 70.47 36.68Q71.12 36.87 71.71 36.87L71.71 36.87Q72.80 36.87 73.57 36.52Q74.34 36.17 74.79 35.61L74.79 35.61L77.42 36.45Q76.58 37.80 75.10 38.57Q73.62 39.34 71.74 39.34ZM67.71 30.74L67.71 30.74L75.35 30.74Q75.32 29.79 74.86 28.99Q74.40 28.19 73.59 27.70Q72.78 27.21 71.68 27.21L71.68 27.21Q70.82 27.21 69.96 27.55Q69.11 27.88 68.51 28.65Q67.90 29.42 67.71 30.74ZM87.08 39.34L87.08 39.34Q84.87 39.34 83.29 38.40Q81.71 37.46 80.85 35.82Q80.00 34.18 80.00 32.06L80.00 32.06Q80.00 29.84 80.94 28.22Q81.88 26.60 83.46 25.71Q85.04 24.83 87.00 24.83L87.00 24.83Q88.65 24.83 89.95 25.48Q91.26 26.12 92.12 27.24Q92.99 28.36 93.38 29.80Q93.78 31.24 93.66 32.87L93.66 32.87L83.02 32.87Q83.16 34.02 83.58 34.80Q84.00 35.58 84.58 36.03Q85.15 36.48 85.81 36.68Q86.47 36.87 87.06 36.87L87.06 36.87Q88.15 36.87 88.92 36.52Q89.69 36.17 90.14 35.61L90.14 35.61L92.77 36.45Q91.93 37.80 90.44 38.57Q88.96 39.34 87.08 39.34ZM83.05 30.74L83.05 30.74L90.70 30.74Q90.67 29.79 90.21 28.99Q89.74 28.19 88.93 27.70Q88.12 27.21 87.03 27.21L87.03 27.21Q86.16 27.21 85.31 27.55Q84.45 27.88 83.85 28.65Q83.25 29.42 83.05 30.74ZM99.24 39L96.27 39L96.27 25.11L98.65 25.11L99.24 27.13Q99.60 26.51 100.20 25.99Q100.80 25.48 101.66 25.15Q102.51 24.83 103.66 24.83L103.66 24.83Q105.37 24.83 106.38 25.50Q107.38 26.18 107.83 27.41Q108.28 28.64 108.28 30.32L108.28 30.32L108.28 39L105.28 39L105.28 31.13Q105.28 30.10 105.12 29.21Q104.95 28.33 104.37 27.80Q103.80 27.27 102.54 27.27L102.54 27.27Q100.97 27.27 100.10 28.37Q99.24 29.48 99.24 31.61L99.24 31.61L99.24 39Z"/></svg>
