<svg xmlns="http://www.w3.org/2000/svg" width="123" height="58" viewBox="0 0 123 58" role="img" aria-label="n8n"><title>n8n</title><defs><filter id="sh" x="-30%" y="-30%" width="160%" height="160%"><feDropShadow dx="0" dy="2" stdDeviation="2" flood-color="#000" flood-opacity="0.25"/></filter></defs><rect x="3" y="7" width="117" height="44" rx="14" fill="rgba(245,240,230,0.09)"/><g transform="rotate(-8 23 29)" filter="url(#sh)"><rect x="4" y="10" width="38" height="38" rx="10" fill="#FFFFFF"/><g style="color:#2A1F17"><svg x="11" y="17" width="24" height="24" viewBox="0 0 24 24" fill="#EA4B71"><path d="M21.4737 5.6842c-1.1772 0-2.1663.8051-2.4468 1.8947h-2.8955c-1.235 0-2.289.893-2.492 2.111l-.1038.623a1.263 1.263 0 0 1-1.246 1.0555H11.289c-.2805-1.0896-1.2696-1.8947-2.4468-1.8947s-2.1663.8051-2.4467 1.8947H4.973c-.2805-1.0896-1.2696-1.8947-2.4468-1.8947C1.1311 9.4737 0 10.6047 0 12s1.131 2.5263 2.5263 2.5263c1.1772 0 2.1663-.8051 2.4468-1.8947h1.4223c.2804 1.0896 1.2696 1.8947 2.4467 1.8947 1.1772 0 2.1663-.8051 2.4468-1.8947h1.0008a1.263 1.263 0 0 1 1.2459 1.0555l.1038.623c.203 1.218 1.257 2.111 2.492 2.111h.3692c.2804 1.0895 1.2696 1.8947 2.4468 1.8947 1.3952 0 2.5263-1.131 2.5263-2.5263s-1.131-2.5263-2.5263-2.5263c-1.1772 0-2.1664.805-2.4468 1.8947h-.3692a1.263 1.263 0 0 1-1.246-1.0555l-.1037-.623A2.52 2.52 0 0 0 13.9607 12a2.52 2.52 0 0 0 .821-1.4794l.1038-.623a1.263 1.263 0 0 1 1.2459-1.0555h2.8955c.2805 1.0896 1.2696 1.8947 2.4468 1.8947 1.3952 0 2.5263-1.131 2.5263-2.5263s-1.131-2.5263-2.5263-2.5263m0 1.2632a1.263 1.263 0 0 1 1.2631 1.2631 1.263 1.263 0 0 1-1.2631 1.2632 1.263 1.263 0 0 1-1.2632-1.2632 1.263 1.263 0 0 1 1.2632-1.2631M2.5263 10.7368A1.263 1.263 0 0 1 3.7895 12a1.263 1.263 0 0 1-1.2632 1.2632A1.263 1.263 0 0 1 1.2632 12a1.263 1.263 0 0 1 1.2631-1.2632m6.3158 0A1.263 1.263 0 0 1 10.1053 12a1.263 1.263 0 0 1-1.2632 1.2632A1.263 1.263 0 0 1 7.579 12a1.263 1.263 0 0 1 1.2632-1.2632m10.1053 3.7895a1.263 1.263 0 0 1 1.2631 1.2632 1.263 1.263 0 0 1-1.2631 1.2631 1.263 1.263 0 0 1-1.2632-1.2631 1.263 1.263 0 0 1 1.2632-1.2632"/></svg></g></g><path fill="#F5F0E6" d="M59.82 39L56.85 39L56.85 25.11L59.23 25.11L59.82 27.13Q60.18 26.51 60.78 25.99Q61.38 25.48 62.24 25.15Q63.09 24.83 64.24 24.83L64.24 24.83Q65.95 24.83 66.96 25.50Q67.96 26.18 68.41 27.41Q68.86 28.64 68.86 30.32L68.86 30.32L68.86 39L65.86 39L65.86 31.13Q65.86 30.10 65.70 29.21Q65.53 28.33 64.95 27.80Q64.38 27.27 63.12 27.27L63.12 27.27Q61.55 27.27 60.68 28.37Q59.82 29.48 59.82 31.61L59.82 31.61L59.82 39ZM79.30 39.34L79.30 39.34Q77.29 39.34 75.66 38.65Q74.04 37.96 73.09 36.68Q72.14 35.39 72.14 33.57L72.14 33.57Q72.14 31.80 73.05 30.59Q73.96 29.37 75.52 28.64L75.52 28.64Q74.85 27.97 74.47 27.06Q74.10 26.15 74.10 25.14L74.10 25.14Q74.10 23.71 74.78 22.52Q75.47 21.33 76.66 20.63Q77.85 19.93 79.30 19.93L79.30 19.93Q80.76 19.93 81.95 20.63Q83.14 21.33 83.83 22.52Q84.51 23.71 84.51 25.14L84.51 25.14Q84.51 26.15 84.12 27.06Q83.73 27.97 83.08 28.64L83.08 28.64Q84.65 29.37 85.58 30.59Q86.50 31.80 86.50 33.57L86.50 33.57Q86.50 35.39 85.55 36.68Q84.60 37.96 82.97 38.65Q81.35 39.34 79.30 39.34ZM79.30 36.79L79.30 36.79Q80.54 36.79 81.43 36.40Q82.33 36.00 82.83 35.26Q83.34 34.52 83.34 33.54L83.34 33.54Q83.34 32.53 82.83 31.82Q82.33 31.10 81.43 30.71Q80.54 30.32 79.30 30.32L79.30 30.32Q78.10 30.32 77.19 30.71Q76.28 31.10 75.78 31.82Q75.27 32.53 75.27 33.54L75.27 33.54Q75.27 34.52 75.78 35.26Q76.28 36.00 77.19 36.40Q78.10 36.79 79.30 36.79ZM79.30 27.74L79.30 27.74Q80.03 27.74 80.62 27.39Q81.21 27.04 81.56 26.46Q81.91 25.87 81.91 25.14L81.91 25.14Q81.91 24.41 81.56 23.82Q81.21 23.24 80.62 22.89Q80.03 22.54 79.30 22.54L79.30 22.54Q78.58 22.54 77.99 22.89Q77.40 23.24 77.05 23.82Q76.70 24.41 76.70 25.14L76.70 25.14Q76.70 25.87 77.05 26.46Q77.40 27.04 77.99 27.39Q78.58 27.74 79.30 27.74ZM92.80 39L89.83 39L89.83 25.11L92.21 25.11L92.80 27.13Q93.16 26.51 93.77 25.99Q94.37 25.48 95.22 25.15Q96.08 24.83 97.22 24.83L97.22 24.83Q98.93 24.83 99.94 25.50Q100.95 26.18 101.40 27.41Q101.84 28.64 101.84 30.32L101.84 30.32L101.84 39L98.85 39L98.85 31.13Q98.85 30.10 98.68 29.21Q98.51 28.33 97.94 27.80Q97.36 27.27 96.10 27.27L96.10 27.27Q94.54 27.27 93.67 28.37Q92.80 29.48 92.80 31.61L92.80 31.61L92.80 39Z"/></svg>
